<svg xmlns="http://www.w3.org/2000/svg" width="44" height="44" viewBox="0 0 44 44">
    <path fill="#2FD976" fill-rule="evenodd" d="M30.885 13.644l1.903 1.904-14.173 14.279c-.282.282-.599.423-.952.423-.352 0-.67-.141-.951-.423l-5.924-5.923L12.692 22l4.971 4.971 13.222-13.327zM22 0c6.064 0 11.247 2.15 15.548 6.452C41.85 10.753 44 15.936 44 22s-2.15 11.247-6.452 15.548C33.247 41.85 28.064 44 22 44s-11.247-2.15-15.548-6.452C2.15 33.247 0 28.064 0 22S2.15 10.753 6.452 6.452C10.753 2.15 15.936 0 22 0zm0 42.202c5.57 0 10.33-1.974 14.279-5.923S42.202 27.57 42.202 22c0-5.57-1.974-10.33-5.923-14.279S27.57 1.798 22 1.798c-5.57 0-10.33 1.974-14.279 5.923S1.798 16.43 1.798 22c0 5.57 1.974 10.33 5.923 14.279S16.43 42.202 22 42.202z"/>
</svg>
