<svg xmlns="http://www.w3.org/2000/svg" width="12" height="14" viewBox="0 0 12 14">
    <path fill="#B2BAC4" fill-rule="nonzero" d="M9.429 5.25C10.846 5.25 12 4.072 12 2.625S10.846 0 9.429 0C8.01 0 6.857 1.178 6.857 2.625c0 .195.025.384.064.568l-2.76 1.76a2.514 2.514 0 0 0-1.59-.578C1.154 4.375 0 5.553 0 7s1.154 2.625 2.571 2.625c.604 0 1.152-.222 1.59-.578l2.76 1.76c-.039.184-.064.373-.064.568C6.857 12.822 8.011 14 9.43 14 10.846 14 12 12.822 12 11.375S10.846 8.75 9.429 8.75c-.604 0-1.152.222-1.59.578l-2.76-1.76c.039-.184.064-.373.064-.568 0-.195-.025-.384-.064-.568l2.76-1.76c.438.356.986.578 1.59.578z"/>
</svg>
